<mxfile host="app.diagrams.net" modified="2021-07-18T06:26:19.497Z" agent="5.0 (X11; Linux x86_64) AppleWebKit/537.36 (KHTML, like Gecko) Chrome/91.0.4472.114 Safari/537.36" etag="jKKFT-rMnNGKCnQuTQao" version="14.9.0" type="github">
  <diagram id="X7MXDSYLk8QcH_rH_bhl" name="Page-1">
    <mxGraphModel dx="793" dy="481" grid="1" gridSize="10" guides="1" tooltips="1" connect="1" arrows="1" fold="1" page="1" pageScale="1" pageWidth="827" pageHeight="1169" math="0" shadow="0">
      <root>
        <mxCell id="0" />
        <mxCell id="1" parent="0" />
        <mxCell id="0D_W91jgBWeG1zWN-o7t-1" value="" style="rounded=0;whiteSpace=wrap;html=1;fillColor=#fff2cc;strokeColor=#d6b656;" vertex="1" parent="1">
          <mxGeometry x="180" y="260" width="540" height="590" as="geometry" />
        </mxCell>
        <mxCell id="0D_W91jgBWeG1zWN-o7t-2" value="&lt;b style=&quot;font-size: 15px;&quot;&gt;User Workspace&lt;/b&gt;&lt;br style=&quot;font-size: 15px;&quot;&gt;$HOME" style="text;html=1;strokeColor=none;fillColor=none;align=left;verticalAlign=bottom;whiteSpace=wrap;rounded=0;fontSize=15;" vertex="1" parent="1">
          <mxGeometry x="184" y="260" width="180" height="40" as="geometry" />
        </mxCell>
        <mxCell id="0D_W91jgBWeG1zWN-o7t-3" value="" style="rounded=0;whiteSpace=wrap;html=1;fillColor=#f9f7ed;strokeColor=#36393d;" vertex="1" parent="1">
          <mxGeometry x="430" y="270" width="280" height="570" as="geometry" />
        </mxCell>
        <mxCell id="0D_W91jgBWeG1zWN-o7t-4" value="Clone of this Repo&lt;br&gt;&lt;span style=&quot;font-weight: normal&quot;&gt;eg. $HOME/git/team-dotfiles&lt;/span&gt;" style="text;html=1;strokeColor=none;fillColor=none;align=left;verticalAlign=middle;whiteSpace=wrap;rounded=0;fontStyle=1" vertex="1" parent="1">
          <mxGeometry x="430" y="270" width="160" height="30" as="geometry" />
        </mxCell>
        <mxCell id="0D_W91jgBWeG1zWN-o7t-6" value="" style="rounded=0;whiteSpace=wrap;html=1;align=left;verticalAlign=bottom;fillColor=#ffe6cc;strokeColor=#d79b00;" vertex="1" parent="1">
          <mxGeometry x="200" y="328" width="110" height="162" as="geometry" />
        </mxCell>
        <mxCell id="0D_W91jgBWeG1zWN-o7t-7" value="&lt;b&gt;.zshrc&lt;/b&gt;&lt;br&gt;templated part&lt;br&gt;with config the user can cange" style="text;html=1;strokeColor=#b85450;fillColor=#f8cecc;align=center;verticalAlign=middle;whiteSpace=wrap;rounded=0;" vertex="1" parent="1">
          <mxGeometry x="200" y="328" width="110" height="80" as="geometry" />
        </mxCell>
        <mxCell id="0D_W91jgBWeG1zWN-o7t-12" value="respected, but uncrontrolled part&lt;br&gt;&lt;font style=&quot;font-size: 9px&quot;&gt;&lt;i&gt;letting room for other tools eg. gcloud&lt;/i&gt;&lt;/font&gt;" style="text;html=1;strokeColor=none;fillColor=none;align=center;verticalAlign=middle;whiteSpace=wrap;rounded=0;" vertex="1" parent="1">
          <mxGeometry x="200" y="413" width="110" height="77" as="geometry" />
        </mxCell>
        <mxCell id="0D_W91jgBWeG1zWN-o7t-14" value="" style="endArrow=none;dashed=1;html=1;exitX=0;exitY=0.5;exitDx=0;exitDy=0;entryX=1;entryY=0.5;entryDx=0;entryDy=0;" edge="1" parent="1" source="0D_W91jgBWeG1zWN-o7t-6" target="0D_W91jgBWeG1zWN-o7t-6">
          <mxGeometry width="50" height="50" relative="1" as="geometry">
            <mxPoint x="370" y="468" as="sourcePoint" />
            <mxPoint x="420" y="418" as="targetPoint" />
          </mxGeometry>
        </mxCell>
        <mxCell id="0D_W91jgBWeG1zWN-o7t-16" value="" style="rounded=0;whiteSpace=wrap;html=1;align=left;verticalAlign=top;fillColor=#f8cecc;strokeColor=#b85450;" vertex="1" parent="1">
          <mxGeometry x="440" y="320" width="120" height="60" as="geometry" />
        </mxCell>
        <mxCell id="0D_W91jgBWeG1zWN-o7t-17" value="&lt;b&gt;main-rc.zsh&lt;/b&gt;&lt;br&gt;shared zshrc code" style="text;html=1;strokeColor=none;fillColor=none;align=center;verticalAlign=middle;whiteSpace=wrap;rounded=0;" vertex="1" parent="1">
          <mxGeometry x="440" y="320" width="110" height="60" as="geometry" />
        </mxCell>
        <mxCell id="0D_W91jgBWeG1zWN-o7t-18" value="&lt;b&gt;manage-dotfiles.zsh&lt;br&gt;&lt;/b&gt;functions to help manage the dotfiles" style="rounded=0;whiteSpace=wrap;html=1;align=left;verticalAlign=top;fillColor=#bac8d3;strokeColor=#23445d;" vertex="1" parent="1">
          <mxGeometry x="440" y="390" width="120" height="60" as="geometry" />
        </mxCell>
        <mxCell id="0D_W91jgBWeG1zWN-o7t-19" value="" style="endArrow=classic;html=1;exitX=1;exitY=0.25;exitDx=0;exitDy=0;entryX=0;entryY=0.5;entryDx=0;entryDy=0;" edge="1" parent="1" source="0D_W91jgBWeG1zWN-o7t-7" target="0D_W91jgBWeG1zWN-o7t-17">
          <mxGeometry width="50" height="50" relative="1" as="geometry">
            <mxPoint x="370" y="440" as="sourcePoint" />
            <mxPoint x="420" y="390" as="targetPoint" />
          </mxGeometry>
        </mxCell>
        <mxCell id="0D_W91jgBWeG1zWN-o7t-20" value="sourced" style="edgeLabel;html=1;align=center;verticalAlign=middle;resizable=0;points=[];" vertex="1" connectable="0" parent="0D_W91jgBWeG1zWN-o7t-19">
          <mxGeometry x="0.264" relative="1" as="geometry">
            <mxPoint x="-12" as="offset" />
          </mxGeometry>
        </mxCell>
        <mxCell id="0D_W91jgBWeG1zWN-o7t-21" value="" style="endArrow=classic;html=1;exitX=1;exitY=0.5;exitDx=0;exitDy=0;entryX=0;entryY=0.5;entryDx=0;entryDy=0;" edge="1" parent="1" source="0D_W91jgBWeG1zWN-o7t-7" target="0D_W91jgBWeG1zWN-o7t-18">
          <mxGeometry width="50" height="50" relative="1" as="geometry">
            <mxPoint x="370" y="440" as="sourcePoint" />
            <mxPoint x="420" y="390" as="targetPoint" />
          </mxGeometry>
        </mxCell>
        <mxCell id="0D_W91jgBWeG1zWN-o7t-22" value="sourced" style="edgeLabel;html=1;align=center;verticalAlign=middle;resizable=0;points=[];" vertex="1" connectable="0" parent="0D_W91jgBWeG1zWN-o7t-21">
          <mxGeometry x="0.1278" y="3" relative="1" as="geometry">
            <mxPoint x="-15" y="-10" as="offset" />
          </mxGeometry>
        </mxCell>
        <mxCell id="0D_W91jgBWeG1zWN-o7t-24" value="" style="endArrow=classic;html=1;exitX=0.999;exitY=0.673;exitDx=0;exitDy=0;entryX=-0.008;entryY=0.353;entryDx=0;entryDy=0;entryPerimeter=0;exitPerimeter=0;" edge="1" parent="1" source="0D_W91jgBWeG1zWN-o7t-7">
          <mxGeometry width="50" height="50" relative="1" as="geometry">
            <mxPoint x="370" y="440" as="sourcePoint" />
            <mxPoint x="439.0400000000002" y="484.71000000000004" as="targetPoint" />
          </mxGeometry>
        </mxCell>
        <mxCell id="0D_W91jgBWeG1zWN-o7t-25" value="sourced" style="edgeLabel;html=1;align=center;verticalAlign=middle;resizable=0;points=[];" vertex="1" connectable="0" parent="0D_W91jgBWeG1zWN-o7t-24">
          <mxGeometry x="-0.2378" relative="1" as="geometry">
            <mxPoint as="offset" />
          </mxGeometry>
        </mxCell>
        <mxCell id="0D_W91jgBWeG1zWN-o7t-26" value="&lt;b&gt;install.zsh&lt;br&gt;&lt;/b&gt;&lt;span&gt;- Pull, and Update Repo&lt;br&gt;&lt;/span&gt;- initial config setup&lt;br&gt;- replace template part of .zshrc" style="rounded=0;whiteSpace=wrap;html=1;align=left;verticalAlign=top;fillColor=#b0e3e6;strokeColor=#0e8088;" vertex="1" parent="1">
          <mxGeometry x="590" y="320" width="110" height="110" as="geometry" />
        </mxCell>
        <mxCell id="0D_W91jgBWeG1zWN-o7t-27" value="&lt;b&gt;zshrc-template.zsh&lt;br&gt;&lt;/b&gt;just the bare template that will be placed by install.zsh" style="rounded=0;whiteSpace=wrap;html=1;align=left;verticalAlign=top;shadow=1;fillColor=#b1ddf0;strokeColor=#10739e;" vertex="1" parent="1">
          <mxGeometry x="570" y="446" width="130" height="70" as="geometry" />
        </mxCell>
        <mxCell id="0D_W91jgBWeG1zWN-o7t-28" value="" style="endArrow=classic;html=1;exitX=0.316;exitY=1.004;exitDx=0;exitDy=0;exitPerimeter=0;" edge="1" parent="1" source="0D_W91jgBWeG1zWN-o7t-26">
          <mxGeometry width="50" height="50" relative="1" as="geometry">
            <mxPoint x="617.5" y="437" as="sourcePoint" />
            <mxPoint x="290" y="327" as="targetPoint" />
            <Array as="points">
              <mxPoint x="580" y="450" />
              <mxPoint x="580" y="307" />
              <mxPoint x="290" y="307" />
            </Array>
          </mxGeometry>
        </mxCell>
        <mxCell id="0D_W91jgBWeG1zWN-o7t-50" value="merging/replace" style="edgeLabel;html=1;align=center;verticalAlign=middle;resizable=0;points=[];fontSize=11;" vertex="1" connectable="0" parent="0D_W91jgBWeG1zWN-o7t-28">
          <mxGeometry x="0.6225" y="-2" relative="1" as="geometry">
            <mxPoint as="offset" />
          </mxGeometry>
        </mxCell>
        <mxCell id="0D_W91jgBWeG1zWN-o7t-29" value="&lt;b&gt;link-dotfiles.zsh&lt;br&gt;&lt;/b&gt;&lt;font style=&quot;font-size: 11px&quot;&gt;link all the files in $HOME that should not be sourced&lt;/font&gt;" style="rounded=0;whiteSpace=wrap;html=1;shadow=1;align=left;verticalAlign=top;fillColor=#bac8d3;strokeColor=#23445d;" vertex="1" parent="1">
          <mxGeometry x="440" y="545" width="120" height="65" as="geometry" />
        </mxCell>
        <mxCell id="0D_W91jgBWeG1zWN-o7t-30" value="" style="endArrow=classic;html=1;exitX=1.004;exitY=0.401;exitDx=0;exitDy=0;exitPerimeter=0;entryX=0.001;entryY=0.383;entryDx=0;entryDy=0;entryPerimeter=0;" edge="1" parent="1" source="0D_W91jgBWeG1zWN-o7t-6" target="0D_W91jgBWeG1zWN-o7t-29">
          <mxGeometry width="50" height="50" relative="1" as="geometry">
            <mxPoint x="370" y="510" as="sourcePoint" />
            <mxPoint x="420" y="460" as="targetPoint" />
          </mxGeometry>
        </mxCell>
        <mxCell id="0D_W91jgBWeG1zWN-o7t-31" value="executed" style="edgeLabel;html=1;align=center;verticalAlign=middle;resizable=0;points=[];" vertex="1" connectable="0" parent="0D_W91jgBWeG1zWN-o7t-30">
          <mxGeometry x="0.1029" y="1" relative="1" as="geometry">
            <mxPoint as="offset" />
          </mxGeometry>
        </mxCell>
        <mxCell id="0D_W91jgBWeG1zWN-o7t-32" value="&lt;b&gt;additionals/*.zsh&lt;br&gt;&lt;/b&gt;&lt;font style=&quot;font-size: 11px&quot;&gt;&lt;b&gt;one of&lt;/b&gt; multiple, personal rc files&lt;/font&gt;" style="shape=cube;whiteSpace=wrap;html=1;boundedLbl=1;backgroundOutline=1;darkOpacity=0.05;darkOpacity2=0.1;shadow=1;align=left;verticalAlign=top;size=10;fillColor=#d5e8d4;strokeColor=#82b366;" vertex="1" parent="1">
          <mxGeometry x="440" y="456" width="120" height="80" as="geometry" />
        </mxCell>
        <mxCell id="0D_W91jgBWeG1zWN-o7t-35" value=".p10k.zsh" style="rhombus;whiteSpace=wrap;html=1;shadow=1;align=center;verticalAlign=middle;fillColor=#dae8fc;strokeColor=#6c8ebf;" vertex="1" parent="1">
          <mxGeometry x="190" y="504" width="70" height="65" as="geometry" />
        </mxCell>
        <mxCell id="0D_W91jgBWeG1zWN-o7t-36" value=".vimrc" style="rhombus;whiteSpace=wrap;html=1;shadow=1;align=center;verticalAlign=middle;fillColor=#dae8fc;strokeColor=#6c8ebf;" vertex="1" parent="1">
          <mxGeometry x="190" y="580" width="70" height="65" as="geometry" />
        </mxCell>
        <mxCell id="0D_W91jgBWeG1zWN-o7t-37" value="" style="endArrow=classic;html=1;exitX=1;exitY=1;exitDx=0;exitDy=0;entryX=0;entryY=0;entryDx=0;entryDy=70;entryPerimeter=0;fillColor=#dae8fc;strokeColor=#6c8ebf;" edge="1" parent="1" source="0D_W91jgBWeG1zWN-o7t-35" target="0D_W91jgBWeG1zWN-o7t-33">
          <mxGeometry width="50" height="50" relative="1" as="geometry">
            <mxPoint x="370" y="510" as="sourcePoint" />
            <mxPoint x="420" y="460" as="targetPoint" />
            <Array as="points">
              <mxPoint x="270" y="553" />
              <mxPoint x="280" y="615" />
            </Array>
          </mxGeometry>
        </mxCell>
        <mxCell id="0D_W91jgBWeG1zWN-o7t-38" value="" style="endArrow=classic;html=1;exitX=1;exitY=1;exitDx=0;exitDy=0;entryX=0;entryY=0.254;entryDx=0;entryDy=0;entryPerimeter=0;fillColor=#dae8fc;strokeColor=#6c8ebf;" edge="1" parent="1" source="0D_W91jgBWeG1zWN-o7t-36" target="0D_W91jgBWeG1zWN-o7t-34">
          <mxGeometry width="50" height="50" relative="1" as="geometry">
            <mxPoint x="370" y="510" as="sourcePoint" />
            <mxPoint x="570" y="640" as="targetPoint" />
            <Array as="points">
              <mxPoint x="280" y="620" />
              <mxPoint x="560" y="620" />
            </Array>
          </mxGeometry>
        </mxCell>
        <mxCell id="0D_W91jgBWeG1zWN-o7t-40" value="symbolic linked" style="text;html=1;align=center;verticalAlign=middle;whiteSpace=wrap;rounded=0;shadow=0;fillColor=#dae8fc;strokeColor=#6c8ebf;" vertex="1" parent="1">
          <mxGeometry x="310" y="606.5" width="90" height="20" as="geometry" />
        </mxCell>
        <mxCell id="0D_W91jgBWeG1zWN-o7t-41" value="" style="endArrow=classic;html=1;exitX=0;exitY=0.5;exitDx=0;exitDy=0;entryX=0.5;entryY=0;entryDx=0;entryDy=0;" edge="1" parent="1" source="0D_W91jgBWeG1zWN-o7t-29" target="0D_W91jgBWeG1zWN-o7t-40">
          <mxGeometry width="50" height="50" relative="1" as="geometry">
            <mxPoint x="370" y="690" as="sourcePoint" />
            <mxPoint x="420" y="640" as="targetPoint" />
            <Array as="points">
              <mxPoint x="355" y="578" />
            </Array>
          </mxGeometry>
        </mxCell>
        <mxCell id="0D_W91jgBWeG1zWN-o7t-44" value="&lt;b&gt;scripts/*.zsh&lt;br&gt;&lt;/b&gt;&lt;font style=&quot;font-size: 11px&quot;&gt;one &lt;b&gt;or multiple&lt;/b&gt; scripts that may be usefull&lt;/font&gt;" style="shape=cube;whiteSpace=wrap;html=1;boundedLbl=1;backgroundOutline=1;darkOpacity=0.05;darkOpacity2=0.1;shadow=1;align=left;verticalAlign=top;size=10;strokeColor=#82b366;fillColor=#B9E0A5;" vertex="1" parent="1">
          <mxGeometry x="575" y="704" width="125" height="80" as="geometry" />
        </mxCell>
        <mxCell id="0D_W91jgBWeG1zWN-o7t-34" value="&lt;b&gt;vimrc/*.vimrc&lt;br&gt;&lt;/b&gt;&lt;font style=&quot;font-size: 11px&quot;&gt;&lt;b&gt;one of&lt;/b&gt; multiple, personal vimrc files&lt;/font&gt;" style="shape=cube;whiteSpace=wrap;html=1;boundedLbl=1;backgroundOutline=1;darkOpacity=0.05;darkOpacity2=0.1;shadow=1;align=left;verticalAlign=top;size=10;fillColor=#d5e8d4;strokeColor=#82b366;" vertex="1" parent="1">
          <mxGeometry x="575" y="625" width="125" height="80" as="geometry" />
        </mxCell>
        <mxCell id="0D_W91jgBWeG1zWN-o7t-33" value="&lt;b&gt;p10k/*.zsh&lt;br&gt;&lt;/b&gt;&lt;font style=&quot;font-size: 11px&quot;&gt;&lt;b&gt;one of&lt;/b&gt; multiple, personal, p10k-style files&lt;/font&gt;" style="shape=cube;whiteSpace=wrap;html=1;boundedLbl=1;backgroundOutline=1;darkOpacity=0.05;darkOpacity2=0.1;shadow=1;align=left;verticalAlign=top;size=10;fillColor=#d5e8d4;strokeColor=#82b366;" vertex="1" parent="1">
          <mxGeometry x="575" y="545" width="125" height="80" as="geometry" />
        </mxCell>
        <mxCell id="0D_W91jgBWeG1zWN-o7t-45" value="&lt;b&gt;script-loader.zsh&lt;br&gt;&lt;/b&gt;maintain commands for scripts in shell based of config" style="rounded=0;whiteSpace=wrap;html=1;shadow=1;align=left;verticalAlign=top;fillColor=#bac8d3;strokeColor=#23445d;" vertex="1" parent="1">
          <mxGeometry x="440" y="645" width="120" height="73" as="geometry" />
        </mxCell>
        <mxCell id="0D_W91jgBWeG1zWN-o7t-46" value="" style="endArrow=classic;html=1;exitX=1.004;exitY=0.458;exitDx=0;exitDy=0;exitPerimeter=0;entryX=0;entryY=0.5;entryDx=0;entryDy=0;" edge="1" parent="1" source="0D_W91jgBWeG1zWN-o7t-6" target="0D_W91jgBWeG1zWN-o7t-45">
          <mxGeometry width="50" height="50" relative="1" as="geometry">
            <mxPoint x="370" y="540" as="sourcePoint" />
            <mxPoint x="420" y="490" as="targetPoint" />
            <Array as="points">
              <mxPoint x="360" y="510" />
              <mxPoint x="420" y="560" />
              <mxPoint x="420" y="660" />
            </Array>
          </mxGeometry>
        </mxCell>
        <mxCell id="0D_W91jgBWeG1zWN-o7t-47" value="sourced" style="edgeLabel;html=1;align=center;verticalAlign=middle;resizable=0;points=[];" vertex="1" connectable="0" parent="0D_W91jgBWeG1zWN-o7t-46">
          <mxGeometry x="-0.1891" y="2" relative="1" as="geometry">
            <mxPoint as="offset" />
          </mxGeometry>
        </mxCell>
        <mxCell id="0D_W91jgBWeG1zWN-o7t-42" value="maintain" style="text;html=1;strokeColor=none;align=center;verticalAlign=middle;whiteSpace=wrap;rounded=0;shadow=0;fillColor=#ffffff;" vertex="1" parent="1">
          <mxGeometry x="372" y="567" width="50" height="20" as="geometry" />
        </mxCell>
        <mxCell id="0D_W91jgBWeG1zWN-o7t-48" value="" style="endArrow=classic;html=1;exitX=0.5;exitY=1;exitDx=0;exitDy=0;entryX=0;entryY=0;entryDx=0;entryDy=35;entryPerimeter=0;fillColor=#f8cecc;strokeColor=#b85450;" edge="1" parent="1" source="0D_W91jgBWeG1zWN-o7t-45" target="0D_W91jgBWeG1zWN-o7t-44">
          <mxGeometry width="50" height="50" relative="1" as="geometry">
            <mxPoint x="370" y="630" as="sourcePoint" />
            <mxPoint x="420" y="580" as="targetPoint" />
            <Array as="points">
              <mxPoint x="510" y="739" />
            </Array>
          </mxGeometry>
        </mxCell>
        <mxCell id="0D_W91jgBWeG1zWN-o7t-49" value="Linked&lt;br&gt;using alias" style="edgeLabel;html=1;align=center;verticalAlign=middle;resizable=0;points=[];fontColor=#FF9999;" vertex="1" connectable="0" parent="0D_W91jgBWeG1zWN-o7t-48">
          <mxGeometry x="-0.1265" relative="1" as="geometry">
            <mxPoint as="offset" />
          </mxGeometry>
        </mxCell>
      </root>
    </mxGraphModel>
  </diagram>
</mxfile>
